<?xml version="1.0" standalone="no"?>
<!DOCTYPE svg PUBLIC "-//W3C//DTD SVG 20010904//EN"
 "http://www.w3.org/TR/2001/REC-SVG-20010904/DTD/svg10.dtd">
<svg version="1.0" xmlns="http://www.w3.org/2000/svg"
 width="121.000000pt" height="120.000000pt" viewBox="0 0 121.000000 120.000000"
 preserveAspectRatio="xMidYMid meet">
<metadata>
Created by potrace 1.10, written by Peter Selinger 2001-2011
</metadata>
<g transform="translate(0.000000,120.000000) scale(0.100000,-0.100000)"
fill="#000000" stroke="none">
<path d="M718 1095 c-2 -2 -43 -5 -91 -6 -49 -1 -87 -6 -87 -12 0 -6 -5 -6
-12 0 -25 18 -115 13 -103 -6 3 -5 -11 -15 -30 -21 -19 -6 -35 -16 -35 -22 0
-6 -8 -7 -17 -4 -10 4 -14 4 -10 0 4 -4 -15 -20 -42 -35 -32 -19 -59 -44 -78
-76 -33 -53 -47 -84 -45 -95 1 -5 -2 -8 -8 -8 -5 0 -10 -11 -10 -25 0 -14 -8
-38 -17 -52 -15 -22 -18 -50 -18 -148 0 -118 1 -121 35 -185 19 -36 49 -82 67
-103 19 -21 31 -42 29 -46 -3 -5 12 -21 34 -36 22 -15 37 -32 33 -38 -3 -5 -1
-7 4 -4 14 9 115 -38 105 -48 -4 -5 -1 -5 6 -1 8 5 21 1 31 -8 13 -12 38 -15
108 -14 51 0 97 4 104 8 6 5 25 3 41 -2 30 -11 32 -10 158 58 19 11 37 22 38
27 2 4 8 5 13 1 5 -3 9 0 9 7 0 7 3 10 6 6 10 -10 63 58 99 127 30 56 41 85
44 119 1 4 6 7 12 7 8 0 7 -6 -2 -18 -9 -12 -9 -14 0 -6 15 14 18 291 2 307
-5 5 -7 16 -4 23 3 8 -2 16 -10 20 -8 3 -21 19 -27 35 -7 16 -16 29 -21 29 -4
0 -6 9 -4 20 2 11 0 18 -6 15 -5 -4 -9 -1 -9 4 0 6 -7 11 -15 11 -8 0 -12 6
-9 13 5 14 -38 67 -56 67 -5 0 -10 5 -10 10 0 6 -4 10 -10 10 -5 0 -34 16 -65
35 -30 20 -55 32 -55 28 0 -4 -4 -3 -8 2 -8 12 -58 35 -64 30z m-116 -108 c67
-41 142 -84 166 -97 42 -24 42 -24 42 -82 0 -32 -2 -58 -5 -58 -3 0 -77 43
-164 96 l-158 95 -149 -87 c-82 -47 -153 -89 -158 -92 -8 -5 20 49 76 143 11
19 56 53 120 92 57 33 104 61 105 62 0 1 57 -32 125 -72z m239 6 l99 -56 0
-192 0 -193 -50 -31 c-28 -17 -51 -31 -53 -31 -1 0 -1 87 1 193 l3 194 -155
87 c-86 48 -156 88 -156 89 0 1 48 0 106 -1 l107 -4 98 -55z m-261 -142 c0 -3
-75 -49 -166 -101 l-166 -95 4 -176 c1 -98 0 -175 -4 -173 -3 2 -27 42 -52 89
l-46 85 0 117 0 118 168 97 167 97 47 -26 c27 -15 48 -29 48 -32z m490 -257
l0 -120 -42 -21 c-24 -12 -99 -55 -168 -96 l-126 -74 -47 26 c-26 14 -47 28
-46 31 0 3 72 48 161 100 l160 95 -1 185 -1 185 55 -95 54 -95 1 -121z m-372
171 c40 -24 70 -38 66 -32 -3 7 4 1 15 -12 18 -20 21 -36 21 -127 0 -123 0
-120 -11 -117 -5 2 -9 -2 -9 -8 0 -5 -4 -7 -10 -4 -5 3 -10 1 -10 -5 0 -6 -11
-15 -25 -20 -13 -5 -43 -22 -67 -37 -44 -28 -59 -33 -68 -23 -3 3 -27 16 -55
30 -27 14 -63 36 -79 50 -16 14 -26 18 -22 10 4 -8 0 -6 -8 4 -12 15 -16 44
-16 127 l0 107 56 37 c30 20 58 34 61 31 3 -3 15 6 25 20 25 31 38 27 136 -31z
m-285 -469 c17 -10 88 -50 157 -87 l125 -69 -106 0 -106 0 -101 57 -102 57 0
196 0 195 48 26 47 26 3 -191 2 -191 33 -19z m178 44 l150 -89 154 93 c85 52
155 91 154 88 0 -4 -24 -45 -53 -92 -50 -82 -56 -87 -150 -142 -54 -32 -101
-58 -105 -58 -5 0 -77 40 -161 90 -84 49 -156 91 -160 92 -4 2 -9 31 -12 65
-4 58 -3 61 14 52 11 -6 86 -50 169 -99z"/>
</g>
</svg>
