<?xml version="1.0" standalone="no"?>
<!DOCTYPE svg PUBLIC "-//W3C//DTD SVG 20010904//EN"
 "http://www.w3.org/TR/2001/REC-SVG-20010904/DTD/svg10.dtd">
<svg version="1.0" xmlns="http://www.w3.org/2000/svg"
 width="300.000000pt" height="106.000000pt" viewBox="0 0 300.000000 106.000000"
 preserveAspectRatio="xMidYMid meet">
<metadata>
Created by potrace 1.10, written by Peter Selinger 2001-2011
</metadata>
<g transform="translate(0.000000,106.000000) scale(0.100000,-0.100000)"
fill="#000000" stroke="none">
<path d="M322 892 c-43 -24 -85 -50 -94 -59 -15 -13 -68 -113 -101 -189 -5
-11 -9 -65 -9 -120 -1 -88 2 -105 25 -149 57 -109 99 -158 183 -208 l81 -48
94 1 c52 1 107 1 123 0 28 0 133 52 192 97 19 14 47 55 69 101 20 42 41 85 46
94 5 9 9 64 10 121 1 114 -12 155 -80 242 -17 22 -37 48 -44 58 -8 9 -49 37
-93 62 l-79 45 -123 -2 -124 -2 -76 -44z m238 -64 l140 -81 0 -50 0 -49 -32
20 c-18 10 -79 47 -135 81 -57 33 -105 61 -108 61 -6 0 -198 -109 -245 -139
l-25 -16 23 35 c13 19 32 53 43 75 16 32 39 51 107 91 48 29 88 52 89 53 2 1
66 -36 143 -81z m150 33 l85 -48 3 -161 2 -160 -33 -21 c-19 -12 -37 -21 -40
-21 -4 0 -8 71 -9 157 l-3 158 -117 66 c-65 36 -121 68 -125 72 -3 4 29 7 73
7 76 0 82 -2 164 -49z m-222 -110 c22 -12 16 -17 -119 -93 l-142 -81 5 -148
c3 -82 4 -149 3 -149 -2 0 -22 34 -44 76 -40 74 -41 78 -41 173 l0 98 138 80
c120 70 140 79 157 68 11 -6 30 -17 43 -24z m383 -56 c38 -66 39 -69 39 -165
l0 -98 -117 -68 c-65 -37 -127 -73 -138 -80 -17 -11 -27 -9 -64 10 l-44 23 34
20 c19 11 80 46 136 79 l103 59 0 149 c0 82 3 147 6 143 3 -3 23 -36 45 -72z
m-266 -31 c33 -20 63 -41 67 -48 4 -6 8 -49 8 -96 l0 -85 -72 -42 -72 -41 -40
20 c-23 12 -58 32 -78 45 l-38 23 0 93 1 92 62 36 c34 21 71 37 82 38 11 1 47
-15 80 -35z m-137 -439 l127 -70 -82 -3 -82 -3 -88 50 -88 50 5 161 5 160 35
24 35 24 3 -162 2 -161 128 -70z m169 25 c4 0 62 32 127 70 65 39 120 69 122
68 1 -2 -16 -33 -38 -71 -36 -61 -49 -72 -125 -117 l-85 -50 -139 81 -139 81
0 49 0 48 134 -79 c74 -44 139 -80 143 -80z"/>
<path d="M1835 694 c-43 -22 -64 -44 -86 -86 -11 -21 -23 -38 -28 -38 -5 0
-17 22 -26 50 -37 112 -121 107 -160 -11 -9 -26 -23 -53 -31 -59 -12 -11 -14
-4 -14 47 0 49 -4 63 -23 81 -49 46 -98 19 -127 -67 -7 -22 -17 -41 -22 -41
-5 0 -18 21 -29 48 -36 83 -70 101 -125 66 -23 -15 -26 -15 -44 1 -20 18 -50
14 -69 -9 -8 -9 -12 -64 -12 -151 0 -115 3 -141 17 -156 20 -23 42 -24 70 -5
17 12 22 12 39 0 25 -18 44 -18 66 2 17 15 20 15 43 0 31 -20 60 -21 76 -1 16
19 34 19 49 1 8 -9 32 -14 72 -13 60 0 73 7 117 61 16 20 38 20 54 0 54 -66
83 -79 108 -49 17 20 32 19 74 -6 29 -17 46 -20 88 -15 29 3 66 6 82 6 17 0
38 8 48 17 17 15 19 15 36 0 23 -21 42 -21 68 -3 16 12 22 12 46 -2 24 -14 29
-14 52 2 25 16 30 30 27 68 -4 33 19 28 44 -11 34 -55 66 -75 109 -67 20 4 37
2 41 -4 8 -13 280 -13 305 0 13 7 27 6 45 -2 22 -10 29 -9 48 10 21 21 22 31
22 166 0 127 -2 146 -19 165 -24 27 -48 27 -72 0 -15 -17 -19 -40 -22 -117 -2
-53 -5 -98 -7 -100 -2 -2 -24 36 -48 84 -59 118 -77 139 -109 131 -20 -5 -37
-29 -78 -107 -29 -55 -56 -98 -59 -94 -3 3 -8 47 -11 97 -5 86 -6 92 -32 106
-24 14 -28 14 -47 -3 -11 -10 -24 -37 -28 -59 l-8 -41 -38 51 c-20 28 -44 54
-53 57 -26 10 -51 7 -64 -8 -10 -13 -16 -13 -45 1 -31 15 -36 15 -59 -1 -14
-9 -26 -23 -26 -31 0 -20 -1 -20 -60 20 -59 40 -114 46 -165 19z m142 -40 c13
-8 30 -28 38 -44 15 -29 15 -30 -10 -30 -14 0 -25 5 -25 10 0 6 -9 19 -20 30
-31 31 -85 27 -121 -9 -24 -25 -29 -37 -29 -81 0 -55 19 -104 45 -114 9 -3 32
-6 51 -6 40 0 84 37 84 70 0 17 -6 20 -45 20 -38 0 -45 3 -45 20 0 18 6 20 65
18 l65 -2 0 -78 c0 -63 -3 -78 -15 -78 -9 0 -15 9 -15 21 l0 20 -26 -20 c-59
-46 -145 -32 -184 31 -31 48 -25 156 10 194 50 53 121 65 177 28z m793 -281
c0 -2 -69 -3 -153 -3 l-153 0 75 153 76 153 77 -151 c43 -82 78 -151 78 -152z
m80 152 c0 -148 -1 -155 -20 -155 -19 0 -20 7 -20 155 0 148 1 155 20 155 19
0 20 -7 20 -155z m-1738 0 c3 -145 3 -145 -19 -145 -23 0 -23 1 -23 145 0 137
1 145 19 145 19 0 20 -9 23 -145z m162 25 c22 -66 41 -119 43 -116 2 2 21 54
42 117 35 105 40 114 64 117 l27 3 0 -145 c0 -143 0 -146 -22 -146 -21 0 -21
2 -15 120 4 66 5 120 3 120 -2 0 -20 -54 -41 -120 -34 -104 -41 -120 -60 -120
-19 0 -26 16 -60 120 -21 66 -39 120 -41 120 -2 0 0 -54 3 -120 6 -118 6 -120
-15 -120 -22 0 -22 3 -22 145 l0 145 28 0 c26 0 29 -5 66 -120z m415 -19 c28
-76 51 -141 51 -145 0 -4 -10 -6 -22 -4 -17 2 -25 14 -34 43 -6 22 -14 39 -17
38 -4 -2 -31 -3 -60 -3 l-54 0 -12 -40 c-9 -30 -17 -40 -32 -40 -25 0 -26 -7
36 158 42 113 53 132 71 132 19 0 29 -19 73 -139z m446 -6 c0 -144 0 -145 -22
-145 -23 0 -23 1 -23 145 0 144 0 145 23 145 22 0 22 -1 22 -145z m180 30 l70
-115 3 115 c2 107 4 115 22 115 19 0 20 -7 20 -145 l0 -145 -23 0 c-19 0 -36
19 -85 98 -33 53 -64 105 -67 115 -15 38 -20 11 -17 -98 3 -110 2 -115 -17
-115 -20 0 -21 5 -21 145 0 144 0 145 23 145 18 0 36 -23 92 -115z m-391 39
c21 -8 20 -24 -1 -24 -21 0 -53 -29 -53 -49 0 -8 12 -28 27 -43 l27 -28 -27 0
c-32 0 -47 25 -47 76 0 56 31 84 74 68z"/>
<path d="M2565 513 c-27 -54 -51 -101 -53 -105 -2 -5 44 -8 102 -8 64 0 106 4
106 10 0 6 -35 10 -85 10 -47 0 -85 3 -85 8 1 4 16 36 34 72 l33 64 22 -41
c27 -53 27 -53 -8 -53 -17 0 -33 -4 -36 -10 -4 -6 15 -10 50 -10 l55 0 -40 80
c-22 44 -41 80 -43 80 -1 0 -25 -44 -52 -97z"/>
<path d="M1597 578 c-8 -24 -18 -51 -22 -60 -6 -16 -1 -18 38 -18 l45 0 -20
58 c-11 31 -21 58 -23 60 -1 2 -10 -16 -18 -40z"/>
</g>
</svg>
