<?xml version="1.0" standalone="no"?>
<!DOCTYPE svg PUBLIC "-//W3C//DTD SVG 20010904//EN"
 "http://www.w3.org/TR/2001/REC-SVG-20010904/DTD/svg10.dtd">
<svg version="1.0" xmlns="http://www.w3.org/2000/svg"
 width="175.000000pt" height="160.000000pt" viewBox="0 0 175.000000 160.000000"
 preserveAspectRatio="xMidYMid meet">
<metadata>
Created by potrace 1.10, written by Peter Selinger 2001-2011
</metadata>
<g transform="translate(0.000000,160.000000) scale(0.100000,-0.100000)"
fill="#000000" stroke="none">
<path d="M551 1280 c-74 -44 -138 -81 -142 -82 -6 -3 -149 -247 -149 -255 0
-2 17 8 38 21 20 14 120 72 220 130 l184 105 131 -78 c227 -134 326 -191 331
-191 3 0 6 36 6 80 l0 79 -97 57 c-54 31 -158 92 -232 135 -73 44 -138 79
-145 78 -6 0 -71 -36 -145 -79z m182 13 c11 -10 17 -12 13 -5 -4 6 -2 12 3 12
6 0 11 -3 11 -7 0 -5 12 -17 27 -27 14 -11 23 -14 19 -7 -6 9 -3 9 13 -1 12
-7 19 -19 16 -27 -5 -12 -3 -12 12 0 15 12 16 12 11 -3 -5 -12 -1 -16 18 -13
14 1 22 0 19 -3 -8 -8 75 -53 86 -46 5 3 9 1 9 -5 0 -5 -6 -12 -12 -15 -7 -4
-3 -4 10 -2 18 4 22 1 18 -11 -5 -13 -4 -14 8 -4 12 10 17 9 27 -7 7 -11 19
-18 26 -15 7 3 13 1 13 -5 0 -5 9 -12 21 -15 12 -3 18 -10 14 -16 -3 -6 -2
-11 3 -11 8 0 9 -19 3 -52 0 -4 -16 1 -33 12 -18 10 -48 27 -65 36 -18 9 -33
21 -33 26 0 6 -7 8 -15 4 -9 -3 -19 3 -25 14 -6 11 -16 17 -23 14 -7 -2 -27 8
-43 23 -16 15 -33 27 -39 28 -5 0 -40 15 -76 34 l-66 34 -46 -18 c-26 -10 -44
-21 -42 -25 3 -4 -2 -11 -11 -14 -10 -4 -13 -2 -9 7 4 6 -3 1 -15 -13 -12 -14
-18 -18 -14 -11 5 10 -3 7 -22 -6 -39 -28 -101 -53 -110 -45 -5 4 -2 -2 6 -12
14 -18 14 -19 -10 -6 -24 13 -24 12 -10 -6 8 -10 10 -16 6 -12 -5 4 -15 3 -22
-3 -15 -13 -29 5 -17 24 4 6 8 17 8 22 1 6 7 9 14 7 7 -1 10 2 7 7 -3 5 1 14
9 21 8 7 12 16 9 21 -3 5 1 6 9 3 8 -3 17 2 20 10 4 9 13 16 22 16 8 0 15 5
15 12 0 6 3 8 7 5 3 -4 17 0 30 8 13 9 23 12 23 8 0 -4 7 2 15 14 9 13 22 20
30 17 10 -4 15 0 15 11 0 9 5 13 10 10 6 -3 10 -2 10 4 0 6 6 8 14 5 8 -3 17
-1 21 5 9 16 36 13 58 -6z"/>
<path d="M886 1293 c66 -38 164 -93 217 -123 l97 -55 0 -272 c0 -150 2 -273 4
-273 2 0 34 18 70 39 l67 39 0 273 1 274 -144 82 -143 83 -145 0 -145 0 121
-67z m196 8 c14 -11 28 -17 32 -14 3 3 6 1 6 -5 0 -7 7 -12 15 -12 8 0 15 -4
15 -10 0 -5 9 -10 19 -10 11 0 22 -4 26 -9 3 -6 26 -20 50 -32 25 -12 45 -27
45 -31 0 -5 4 -7 9 -3 6 3 9 -86 8 -230 -1 -151 2 -235 8 -236 6 0 4 -3 -3 -6
-6 -2 -10 -9 -6 -14 3 -5 0 -9 -6 -9 -6 0 -9 -4 -5 -9 7 -13 -35 -25 -46 -14
-10 10 -8 407 2 433 3 8 4 12 2 8 -8 -15 -23 -8 -23 10 0 21 -43 66 -53 55 -4
-3 -7 1 -7 11 0 9 -4 14 -10 11 -5 -3 -10 -1 -10 5 0 7 -7 9 -17 6 -10 -4 -14
-4 -10 0 8 8 -38 34 -59 34 -8 0 -14 5 -14 11 0 5 -4 7 -10 4 -5 -3 -10 -1
-10 5 0 7 -7 10 -14 7 -10 -4 -13 -1 -9 9 3 8 2 14 -3 12 -15 -4 -54 13 -54
23 0 6 -4 7 -10 4 -5 -3 -10 -2 -10 3 0 5 28 10 63 11 50 1 69 -3 89 -18z"/>
<path d="M472 1022 l-232 -135 0 -174 0 -175 68 -118 67 -119 3 252 2 252 193
111 c105 62 211 122 234 135 l41 23 -41 24 c-23 13 -55 32 -72 42 l-30 18
-233 -136z m271 73 c16 -7 15 -9 -7 -30 -14 -13 -22 -26 -18 -29 3 -4 -2 -4
-12 0 -13 5 -17 4 -13 -3 4 -6 0 -13 -8 -16 -10 -4 -12 -1 -8 10 5 13 2 12
-14 -3 -11 -10 -18 -23 -15 -29 3 -5 2 -7 -3 -3 -9 8 -65 -22 -65 -35 0 -4 -4
-5 -10 -2 -10 6 -53 -18 -45 -26 2 -3 -5 -5 -16 -6 -11 -1 -17 2 -14 7 3 5 1
11 -4 14 -11 7 -9 -13 3 -34 5 -8 5 -12 1 -8 -10 9 -96 -38 -108 -59 -5 -7
-12 -11 -18 -8 -5 4 -9 -1 -9 -10 0 -9 -4 -14 -9 -11 -5 3 -12 -1 -15 -10 -3
-8 -2 -12 4 -9 6 3 10 -1 10 -9 0 -9 -3 -16 -7 -16 -5 0 -7 -68 -5 -151 2
-121 0 -150 -10 -146 -7 2 -12 10 -10 17 2 7 -3 10 -11 7 -10 -4 -13 4 -12 28
0 19 -4 31 -10 29 -7 -3 -8 48 -4 158 3 90 6 164 7 164 1 1 13 5 27 8 14 4 23
11 20 16 -9 14 9 12 22 -1 9 -9 11 -6 7 12 -5 19 -4 21 5 9 6 -8 11 -10 11 -5
0 11 60 50 73 47 4 -1 7 3 7 9 0 6 9 9 20 6 11 -3 17 -1 14 4 -3 5 9 14 26 21
23 8 28 13 18 19 -10 7 -8 9 6 9 11 0 40 12 65 28 88 53 93 54 134 37z"/>
<path d="M1378 885 l-3 -260 -100 -61 c-95 -58 -327 -189 -349 -198 -14 -5 10
-23 78 -60 l54 -29 231 134 231 134 0 176 0 176 -70 123 -70 124 -2 -259z m85
46 c3 9 6 7 6 -7 1 -11 4 -23 7 -27 3 -3 5 -77 5 -164 -1 -149 -3 -159 -23
-176 -12 -10 -28 -15 -35 -13 -8 3 -11 1 -8 -4 3 -5 -5 -15 -19 -22 -14 -6
-26 -14 -26 -18 0 -8 -33 -21 -58 -24 -7 0 -17 -8 -22 -16 -5 -8 -10 -10 -10
-5 0 6 -3 6 -8 -1 -8 -11 -76 -54 -86 -54 -4 0 -4 5 0 12 4 7 3 8 -5 4 -6 -4
-9 -11 -6 -16 3 -4 -2 -11 -11 -14 -8 -3 -12 -10 -9 -16 11 -17 -7 -11 -22 8
-7 9 -13 13 -12 7 3 -23 -2 -32 -26 -43 -33 -15 -68 -15 -83 0 -16 16 -15 28
3 28 8 0 15 5 15 10 0 6 6 10 14 10 7 0 29 11 49 24 19 13 46 27 58 31 13 4
32 16 42 26 16 18 24 20 67 23 8 1 15 6 15 13 0 6 20 26 44 43 24 18 40 26 36
19 -5 -8 -4 -10 3 -5 7 4 12 14 12 22 0 9 6 14 13 11 29 -10 36 27 37 194 0
91 3 169 7 173 5 4 13 -5 19 -20 8 -19 13 -23 17 -13z"/>
<path d="M487 824 l-67 -42 -1 -273 0 -273 138 -77 138 -78 148 -4 c81 -2 147
-3 147 -2 0 2 -97 56 -215 121 l-214 119 -3 275 -3 276 -68 -42z m33 -272 c0
-221 1 -228 23 -252 26 -30 93 -74 127 -85 34 -10 61 -40 49 -54 -5 -6 -2 -5
8 3 16 14 36 5 96 -45 5 -3 -17 -6 -48 -5 -34 1 -59 7 -64 15 -7 10 -10 10
-16 1 -4 -7 -10 -8 -14 -3 -9 14 -118 72 -125 67 -3 -2 -4 -1 -1 3 8 10 -34
35 -47 27 -7 -4 -8 -3 -4 4 4 7 1 12 -8 12 -9 0 -23 11 -31 24 -23 34 -21 496
2 496 8 0 12 4 8 9 -5 10 24 20 38 14 4 -2 7 -106 7 -231z"/>
<path d="M591 423 l0 -78 236 -137 235 -137 149 85 c109 63 154 94 165 115 8
16 39 71 69 121 30 50 55 92 55 94 0 2 -33 -16 -72 -40 -40 -24 -138 -82 -218
-128 l-146 -85 -229 134 c-127 73 -233 133 -237 133 -3 0 -7 -35 -7 -77z m57
6 c-2 -6 3 -14 11 -17 10 -3 11 0 5 9 -4 8 5 4 20 -9 16 -12 35 -22 43 -22 8
0 11 -4 8 -10 -3 -5 0 -10 7 -10 9 0 9 -3 -2 -10 -21 -13 -3 -13 22 1 11 6 18
7 15 2 -3 -5 8 -16 24 -26 18 -10 27 -12 23 -4 -4 6 1 5 12 -4 38 -30 77 -52
69 -38 -3 8 0 5 9 -5 8 -10 13 -23 9 -29 -3 -6 -1 -7 5 -3 6 4 35 -6 64 -21
60 -30 104 -41 92 -22 -4 7 -3 9 3 6 6 -4 26 4 44 16 46 31 65 37 77 25 6 -6
12 -6 17 3 5 8 4 10 -3 5 -7 -4 -12 -3 -12 3 0 6 11 13 25 17 14 3 23 9 20 14
-6 10 44 32 56 24 5 -3 8 0 7 6 -2 6 8 19 22 28 18 13 22 13 15 3 -6 -11 -4
-13 8 -8 13 5 13 0 -4 -31 -25 -44 -49 -72 -61 -72 -5 0 -26 -12 -46 -27 -20
-16 -33 -22 -28 -16 5 9 2 11 -9 7 -9 -4 -14 -9 -11 -12 3 -3 -16 -16 -42 -30
-26 -14 -50 -29 -53 -34 -8 -12 -91 -19 -83 -7 2 4 -17 18 -43 30 -65 29 -78
40 -61 51 9 6 5 7 -9 3 -24 -7 -33 10 -10 18 6 3 2 4 -10 4 -12 -1 -19 -6 -15
-12 3 -5 -1 -4 -10 2 -8 7 -18 10 -21 6 -4 -3 -7 -2 -7 4 0 5 -12 15 -26 21
-14 7 -23 16 -20 21 3 4 -6 6 -21 3 -17 -3 -24 -1 -19 6 7 12 -48 34 -60 24
-4 -4 -4 -2 0 5 4 8 -5 18 -24 28 -16 8 -31 19 -31 23 -5 27 -6 58 -2 65 6 11
13 8 11 -4z"/>
</g>
</svg>
