<svg width="250" height="250" viewBox="0 0 250 250" xmlns="http://www.w3.org/2000/svg">
  <rect width="100%" height="100%" fill="#FFFFFF"/>
  <circle cx="70" cy="125" r="55" fill="none" stroke="#000000" stroke-width="2"/>
  <text x="140" y="155" font-family="Open Sans Extrabold" font-size="50" fill="#000000">ImaginAI</text>
  <path d="M 20,80 C 35,50 65,50 80,80 C 65,110 35,110 20,80 Z" fill="#000000"/>
  <path d="M 20,70 C 30,45 70,45 80,70 C 70,95 30,95 20,70 Z" fill="#FFFFFF"/>
  <path d="M 25,85 C 30,70 60,70 65,85 C 60,100 30,100 25,85 Z" fill="#000000"/>
  <path d="M 30,70 C 40,55 50,55 60,70 C 50,85 40,85 30,70 Z" fill="#FFFFFF"/>
</svg>
