<svg width="231.9600036621094" height="83.94132729208931" viewBox="0 0 362 131" class="css-1j8o68f"><defs id="SvgjsDefs4738"></defs><g id="SvgjsG4739" featurekey="rootContainer" transform="matrix(1,0,0,1,0,0)" fill="#323232"><rect xmlns="http://www.w3.org/2000/svg" width="362" height="131" rx="10" ry="10"></rect></g><g id="SvgjsG4740" featurekey="QMusi1-0" transform="matrix(1.25,0,0,1.25,8.75,9.125000238418579)" fill="#ffffff"><polygon xmlns="http://www.w3.org/2000/svg" points="71,48.7 71,18.2 54.8,9 38.7,9 63,22.8 63,36.7 63,53.3 "></polygon><polygon xmlns="http://www.w3.org/2000/svg" points="29,66 54.8,81 54.7,81 55.1,81.3 71.7,71.7 79.7,57.8 55.3,72 29,56.8 "></polygon><polygon xmlns="http://www.w3.org/2000/svg" points="61.2,57 61.3,57 46.9,65.2 54.8,69.8 81,54.5 81,35.2 73,21.3 73,49.8 "></polygon><polygon xmlns="http://www.w3.org/2000/svg" points="61,23.9 34.8,8.7 18.2,18.3 10.2,32.3 35,18 47,25 46.8,25 61,33.2 "></polygon><polygon xmlns="http://www.w3.org/2000/svg" points="35.2,20.3 9,35.6 9,54.8 17,68.7 17,40.2 28.8,33.2 28.8,33.2 43.2,24.9 "></polygon><polygon xmlns="http://www.w3.org/2000/svg" points="19,41.3 19,71.8 35.2,81 51.4,81 27,67.2 27,53.3 27,36.7 "></polygon></g><g id="SvgjsG4741" featurekey="nameLeftFeature-0" transform="matrix(2.380952248797973,0,0,2.380952248797973,125.6666670661334,35.476194032345454)" fill="#ffffff"><path d="M3.76 5.640000000000001 l0 14.36 l-1.94 0 l0 -14.36 l1.94 0 z M20.78 20 l-1.88 0 l0 -8.48 c0 -0.42 0.04 -2.24 0.04 -3.58 l-0.04 0 l-4.04 12.06 l-1.92 0 l-4.04 -12.04 l-0.04 0 c0 1.32 0.04 3.14 0.04 3.56 l0 8.48 l-1.88 0 l0 -14.36 l2.78 0 l4.1 12.14 l0.04 0 l4.08 -12.14 l2.76 0 l0 14.36 z M31.759999999999998 15.82 l-5.76 0 l-1.5 4.18 l-2 0 l5.4 -14.36 l2.2 0 l5.2 14.36 l-2.12 0 z M26.599999999999998 14.1 l4.46 0 l-2.12 -6.32 l-0.04 0 z M43.34 13.98 l0 -1.66 l6.3 0 l0 7.68 l-1.26 0 l-0.46 -1.86 c-0.98 1.36 -2.78 2.24 -4.74 2.24 c-2.46 0 -3.66 -0.9 -4.4 -1.62 c-2.2 -2.08 -2.26 -4.54 -2.26 -6.06 c0 -3.5 2.12 -7.44 6.8 -7.44 c2.68 0 5.66 1.52 6.08 4.74 l-1.88 0 c-0.62 -2.5 -2.72 -3.02 -4.3 -3.02 c-2.58 0 -4.7 2.06 -4.7 5.82 c0 2.92 0.96 5.92 4.78 5.92 c0.72 0 1.88 -0.08 2.94 -0.92 c1.26 -1 1.58 -2.28 1.58 -3.82 l-4.48 0 z M54.88 5.640000000000001 l0 14.36 l-1.94 0 l0 -14.36 l1.94 0 z M67.72 17.240000000000002 l0 -11.6 l1.88 0 l0 14.36 l-2.18 0 l-7.3 -11.6 l-0.04 0 l0 11.6 l-1.88 0 l0 -14.36 l2.3 0 l7.18 11.6 l0.04 0 z"></path></g><g id="SvgjsG4742" featurekey="inlineSymbolFeature-0" transform="matrix(0.45,0,0,0.45,291.5,43.5)" fill="#ffffff"><path xmlns="http://www.w3.org/2000/svg" d="M50,10L10,90h80L50,10z M50,24.909L72.546,70H42.36l3.333-6.667h16.064L50,39.814L31.575,76.667h44.304l3.333,6.666H20.788  L50,24.909z"></path></g><g id="SvgjsG4743" featurekey="nameRightFeature-0" transform="matrix(2.5069636817458774,0,0,2.5069636817458774,332.4373262665804,33.86072516966901)" fill="#ffffff"><path d="M3.76 5.640000000000001 l0 14.36 l-1.94 0 l0 -14.36 l1.94 0 z"></path></g></svg>