<?xml version="1.0" standalone="no"?>
<!DOCTYPE svg PUBLIC "-//W3C//DTD SVG 20010904//EN"
 "http://www.w3.org/TR/2001/REC-SVG-20010904/DTD/svg10.dtd">
<svg version="1.0" xmlns="http://www.w3.org/2000/svg"
 width="300.000000pt" height="105.000000pt" viewBox="0 0 300.000000 105.000000"
 preserveAspectRatio="xMidYMid meet">
<metadata>
Created by potrace 1.10, written by Peter Selinger 2001-2011
</metadata>
<g transform="translate(0.000000,105.000000) scale(0.100000,-0.100000)"
fill="#000000" stroke="none">
<path d="M325 854 c-78 -47 -91 -59 -127 -119 -22 -36 -38 -68 -36 -70 1 -2
35 16 73 39 39 23 95 57 125 74 l56 31 132 -79 c73 -44 135 -80 137 -80 3 0 5
23 5 50 0 28 -3 50 -7 50 -5 0 -67 35 -140 78 l-131 78 -87 -52z"/>
<path d="M511 871 c30 -16 86 -47 124 -69 l70 -40 3 -161 c1 -88 4 -161 7
-161 2 0 20 9 39 21 l36 21 0 126 c0 70 3 143 6 162 l5 35 -87 48 c-84 46 -90
47 -172 47 l-85 0 54 -29z"/>
<path d="M278 702 l-137 -77 -1 -102 c0 -98 1 -103 36 -165 19 -34 38 -66 42
-70 4 -4 6 59 4 140 l-3 147 141 79 141 79 -42 24 c-22 12 -42 23 -43 23 0 0
-63 -35 -138 -78z"/>
<path d="M820 617 l0 -146 -92 -54 c-51 -30 -112 -64 -135 -76 -24 -12 -43
-25 -43 -30 0 -4 18 -16 39 -26 l39 -17 136 77 136 77 0 105 c0 102 -1 106
-36 166 -20 34 -38 64 -40 66 -2 2 -4 -61 -4 -142z"/>
<path d="M1855 660 c-96 -39 -114 -202 -30 -268 38 -30 112 -30 149 -1 l27 21
6 -21 c3 -11 11 -21 18 -21 9 0 13 23 13 80 l1 80 -64 0 c-60 0 -65 -2 -65
-21 0 -20 4 -21 45 -17 40 5 45 3 45 -14 0 -31 -54 -78 -90 -78 -68 0 -105 51
-98 132 8 81 66 122 135 93 17 -7 34 -23 38 -34 7 -23 45 -29 45 -8 0 57 -108
105 -175 77z"/>
<path d="M2555 527 c-38 -78 -71 -146 -73 -152 -1 -6 52 -10 148 -10 82 0 150
1 150 3 0 5 -150 302 -153 301 -1 0 -33 -64 -72 -142z m115 3 c22 -44 40 -82
40 -85 0 -3 -25 -5 -56 -5 -40 0 -55 4 -52 13 3 6 19 13 37 15 18 2 30 6 28
10 -2 4 -10 22 -17 40 -8 17 -17 32 -20 32 -3 0 -20 -29 -38 -65 l-32 -65 84
0 c65 0 85 -3 90 -15 5 -13 -11 -15 -104 -15 -61 0 -110 2 -110 5 0 7 104 215
107 215 2 0 21 -36 43 -80z"/>
<path d="M2822 518 c3 -144 4 -153 23 -153 18 0 19 8 20 152 0 153 0 153 -23
153 l-23 0 3 -152z"/>
<path d="M1070 515 c0 -138 1 -145 20 -145 19 0 20 7 20 145 0 138 -1 145 -20
145 -19 0 -20 -7 -20 -145z"/>
<path d="M1177 518 c2 -126 4 -143 19 -143 14 0 16 14 16 120 -1 66 2 113 6
105 3 -8 22 -62 42 -120 28 -85 39 -105 54 -105 16 0 27 21 58 114 21 63 40
117 44 120 3 3 4 -48 3 -114 -2 -104 0 -120 14 -123 14 -3 16 14 19 142 l3
146 -30 0 c-29 0 -31 -2 -69 -120 -22 -66 -40 -120 -41 -120 -1 0 -19 54 -41
120 -38 118 -40 120 -69 120 l-30 0 2 -142z"/>
<path d="M1545 528 c-62 -164 -61 -158 -37 -158 15 0 24 11 34 43 l15 42 60 3
60 3 13 -46 c10 -37 17 -45 36 -45 l23 0 -26 68 c-14 37 -37 102 -52 144 -23
69 -29 78 -51 78 -23 0 -29 -11 -75 -132z m94 33 c7 -23 15 -49 18 -57 4 -11
-6 -14 -42 -14 -33 0 -45 4 -42 13 3 6 14 36 23 65 20 58 25 57 43 -7z"/>
<path d="M2100 515 c0 -138 1 -145 20 -145 19 0 20 7 20 145 0 138 -1 145 -20
145 -19 0 -20 -7 -20 -145z"/>
<path d="M2210 515 c0 -142 0 -145 22 -145 21 0 21 2 15 120 -3 66 -5 120 -3
120 1 0 36 -54 77 -120 59 -96 79 -120 97 -120 22 0 22 1 22 145 0 138 -1 145
-20 145 -19 0 -20 -7 -20 -117 l0 -117 -72 117 c-58 94 -77 117 -95 117 -23 0
-23 -1 -23 -145z"/>
<path d="M288 585 l-38 -20 0 -165 0 -165 93 -48 c90 -47 94 -49 167 -45 l75
3 -127 70 -127 70 -3 160 -3 160 -37 -20z"/>
<path d="M350 353 l0 -48 140 -82 140 -81 89 51 c61 35 94 62 105 82 8 17 27
50 42 75 l28 45 -29 -20 c-48 -31 -229 -135 -236 -135 -6 0 -139 76 -246 142
l-33 20 0 -49z"/>
</g>
</svg>
